<svg xmlns="http://www.w3.org/2000/svg" xmlns:xlink="http://www.w3.org/1999/xlink" version="1.1" id="Layer_1" x="0px" y="0px" width="40px" height="40px" viewBox="0 0 40 40" enable-background="new 0 0 40 40" xml:space="preserve">
<g>
	<path d="M-12.543,8.498C-10.631,6.022-9,4.388-9,4.388s-6.248-2.32-15.394-2.031c-9.146,0.288-10.608,5.24-14.591,5.365   c-3.983,0.126-5.765-4.723-14.911-4.435C-63.042,3.577-69,6.65-69,6.65s3.139,2.246,5.537,5.493   c4.438,6.01-1.42,25.524,24.879,25.524s19.831-20.028,24.137-26.52c0.527-0.794,1.065-1.542,1.588-2.235   c0.23-0.202,0.373-0.336,0.383-0.347L-12.543,8.498z M-23.967,9.736c1.148-0.215,2.297-0.456,3.445-0.729   c0.208,0.377,0.359,0.778,0.383,1.175c0.089-0.547,0.167-0.981,0.252-1.334c2.589-0.642,5.165-1.438,7.69-2.424   c-0.328,0.467-0.645,0.956-0.963,1.444l-0.016-0.016c-0.064,0.062-4.455,4.285-12.197,6.936   C-25.137,12.065-24.548,10.559-23.967,9.736z M-25.908,10.07c0.385,0.783,0.539,2.184,0.514,4.727   c-1.78,0.608-3.755,1.116-5.877,1.487c0.284-3.555,1.161-5.081,1.868-5.734C-28.244,10.416-27.078,10.257-25.908,10.07z    M-36.347,11.075c1.359-0.051,2.736-0.129,4.13-0.243c0.711,0.605,0.983,2.003,0.94,5.453c-2.099,0.368-4.339,0.603-6.75,0.604   C-37.877,12.479-37.241,11.439-36.347,11.075z M-44.093,11.069c1.194,0.045,2.421,0.07,3.67,0.075l-0.063,0.004   c0.446,0.001,2.266,0.352,2.428,5.741c-2.761-0.001-5.384-0.257-7.838-0.674C-45.477,12.642-44.992,11.421-44.093,11.069z    M-57.322,9.779c0.372,0.63,0.667,1.344,0.663,2.014c0.184-0.792,0.336-1.387,0.497-1.839c1.227,0.179,2.549,0.35,3.952,0.505   c0.451,1.081,0.76,2.522,0.552,4.358c0.369-1.591,0.65-3.084,1.078-4.189c1.239,0.119,2.531,0.225,3.87,0.308   c0.485,0.904,0.898,2.494,0.792,5.276c-11.31-1.924-18.94-7.302-19.033-7.368l-0.071,0.099c-0.224-0.277-0.441-0.554-0.672-0.831   C-65.694,8.112-62.489,8.975-57.322,9.779z M-22.991,22.483c-0.028,0.03-0.053,0.059-0.083,0.09   c-0.065,0.068-0.13,0.137-0.195,0.204c-0.251,0.263-0.541,0.553-0.894,0.878c-0.127,0.117-0.261,0.227-0.39,0.342   c-0.111,0.098-0.213,0.19-0.332,0.29c-0.122,0.104-0.238,0.214-0.362,0.315c-0.005-0.005-0.013-0.009-0.018-0.013   c-2.708,2.161-7.282,4.745-13.734,4.745c-9.519,0-15.371-6.525-16.705-8.185c-2.613-2.98-4.951-6.535-7.724-10.179   c4.029,2.325,13.495,6.918,25.386,6.918c11.421,0,19.563-4.761,23.285-7.477C-17.237,14.518-19.67,18.966-22.991,22.483z"/>
	<path d="M-51.518,23.844c2.747,2.166,6.974,4.491,12.518,4.491c5.887,0,10.192-2.321,12.82-4.332   c-2.484-1.316-7.287-2.21-12.82-2.21C-44.309,21.793-48.954,22.614-51.518,23.844z"/>
</g>
<g>
	<path d="M37.638,12.332C38.913,10.681,40,9.592,40,9.592s-4.166-1.547-10.263-1.354s-7.072,3.494-9.727,3.577   c-2.655,0.084-3.844-3.148-9.94-2.957C3.972,9.051,0,11.1,0,11.1s2.092,1.498,3.691,3.662c2.958,4.006-0.947,17.016,16.586,17.016   c17.533,0,13.22-13.352,16.091-17.68c0.352-0.529,0.71-1.028,1.059-1.49c0.153-0.135,0.249-0.224,0.256-0.231L37.638,12.332z    M30.022,13.157c0.766-0.143,1.532-0.304,2.297-0.485c0.139,0.251,0.239,0.519,0.255,0.783c0.06-0.365,0.112-0.654,0.168-0.89   c1.726-0.428,3.443-0.958,5.127-1.616c-0.218,0.311-0.43,0.637-0.642,0.963l-0.01-0.01c-0.042,0.041-2.97,2.856-8.132,4.624   C29.242,14.71,29.634,13.706,30.022,13.157z M28.728,13.38c0.256,0.522,0.359,1.456,0.343,3.151   c-1.187,0.405-2.503,0.744-3.918,0.991c0.189-2.37,0.774-3.387,1.245-3.823C27.171,13.61,27.948,13.504,28.728,13.38z    M21.769,14.05c0.906-0.034,1.824-0.086,2.753-0.162c0.474,0.403,0.655,1.335,0.627,3.636c-1.399,0.245-2.893,0.402-4.5,0.402   C20.748,14.986,21.172,14.293,21.769,14.05z M16.605,14.046c0.796,0.03,1.614,0.047,2.446,0.05l-0.042,0.002   c0.297,0.001,1.51,0.235,1.619,3.828c-1.841,0-3.59-0.171-5.226-0.449C15.682,15.094,16.005,14.281,16.605,14.046z M7.786,13.186   c0.248,0.42,0.445,0.896,0.441,1.342C8.35,14,8.451,13.604,8.559,13.303c0.818,0.119,1.699,0.233,2.635,0.337   c0.301,0.721,0.507,1.681,0.368,2.906c0.246-1.061,0.434-2.056,0.719-2.793c0.826,0.08,1.687,0.15,2.58,0.205   c0.323,0.603,0.599,1.663,0.528,3.517c-7.54-1.282-12.627-4.868-12.688-4.912l-0.047,0.066c-0.15-0.185-0.294-0.37-0.448-0.554   C2.204,12.075,4.341,12.649,7.786,13.186z M30.673,21.655c-0.019,0.021-0.036,0.039-0.055,0.06   c-0.043,0.045-0.086,0.091-0.13,0.136c-0.168,0.175-0.361,0.368-0.597,0.585c-0.084,0.078-0.174,0.152-0.26,0.228   c-0.074,0.065-0.142,0.127-0.222,0.193c-0.081,0.069-0.159,0.143-0.241,0.21c-0.004-0.003-0.009-0.006-0.012-0.009   C27.351,24.5,24.301,26.223,20,26.223c-6.346,0-10.248-4.35-11.137-5.457c-1.742-1.987-3.3-4.356-5.149-6.786   c2.686,1.55,8.997,4.612,16.924,4.612c7.614,0,13.042-3.174,15.523-4.984C34.509,16.345,32.886,19.31,30.673,21.655z"/>
	<path d="M11.655,22.563c1.832,1.444,4.649,2.994,8.345,2.994c3.924,0,6.794-1.548,8.547-2.888   c-1.656-0.878-4.858-1.473-8.547-1.473C16.461,21.195,13.364,21.743,11.655,22.563z"/>
</g>
<g>
	<path d="M76.228,14.249C77.185,13.011,78,12.194,78,12.194s-3.124-1.16-7.697-1.016c-4.572,0.144-5.304,2.62-7.295,2.683   c-1.992,0.063-2.883-2.361-7.456-2.217C50.979,11.789,48,13.325,48,13.325s1.569,1.123,2.769,2.747   c2.219,3.005-0.71,12.762,12.439,12.762c13.15,0,9.915-10.014,12.068-13.26c0.264-0.397,0.532-0.771,0.794-1.118   c0.115-0.101,0.187-0.168,0.192-0.173L76.228,14.249z M70.517,14.868c0.574-0.108,1.148-0.228,1.723-0.364   c0.104,0.189,0.18,0.389,0.191,0.587c0.044-0.273,0.084-0.49,0.126-0.667c1.294-0.321,2.582-0.719,3.845-1.212   c-0.164,0.233-0.322,0.478-0.482,0.722l-0.008-0.008c-0.032,0.031-2.228,2.142-6.099,3.468   C69.932,16.032,70.226,15.279,70.517,14.868z M69.546,15.035c0.192,0.391,0.269,1.092,0.257,2.363   c-0.89,0.304-1.877,0.558-2.938,0.744c0.142-1.777,0.58-2.54,0.934-2.867C68.378,15.208,68.961,15.128,69.546,15.035z    M64.326,15.538c0.68-0.025,1.368-0.064,2.065-0.122c0.355,0.302,0.491,1.001,0.47,2.727c-1.049,0.184-2.169,0.301-3.375,0.302   C63.561,16.239,63.879,15.72,64.326,15.538z M60.454,15.535c0.597,0.022,1.211,0.035,1.835,0.038l-0.031,0.002   c0.223,0.001,1.133,0.176,1.214,2.871c-1.38,0-2.692-0.129-3.919-0.337C59.762,16.321,60.004,15.71,60.454,15.535z M53.839,14.89   c0.187,0.315,0.334,0.672,0.332,1.007c0.092-0.396,0.168-0.693,0.249-0.919c0.613,0.089,1.274,0.175,1.976,0.252   c0.226,0.541,0.38,1.261,0.276,2.179c0.185-0.795,0.325-1.542,0.539-2.094c0.619,0.059,1.265,0.112,1.934,0.154   c0.243,0.452,0.449,1.247,0.397,2.638c-5.655-0.962-9.471-3.651-9.517-3.684l-0.035,0.049c-0.112-0.139-0.221-0.277-0.336-0.415   C49.653,14.056,51.256,14.487,53.839,14.89z M71.005,21.242c-0.014,0.015-0.027,0.029-0.042,0.045   c-0.033,0.034-0.065,0.068-0.098,0.102c-0.125,0.131-0.271,0.276-0.447,0.439c-0.063,0.059-0.13,0.114-0.195,0.171   c-0.056,0.049-0.106,0.095-0.166,0.145c-0.062,0.052-0.119,0.107-0.182,0.158c-0.003-0.003-0.006-0.004-0.009-0.006   c-1.354,1.081-3.641,2.373-6.867,2.373c-4.759,0-7.686-3.263-8.353-4.092c-1.307-1.49-2.476-3.268-3.862-5.089   c2.015,1.162,6.748,3.459,12.693,3.459c5.711,0,9.782-2.381,11.643-3.739C73.882,17.259,72.665,19.483,71.005,21.242z"/>
	<path d="M56.741,21.922c1.374,1.083,3.487,2.246,6.259,2.246c2.943,0,5.096-1.161,6.41-2.166c-1.242-0.658-3.644-1.105-6.41-1.105   C60.346,20.896,58.023,21.307,56.741,21.922z"/>
</g>
<g>
	<path d="M102.819,16.166c0.637-0.826,1.181-1.37,1.181-1.37s-2.083-0.773-5.131-0.677c-3.048,0.096-3.536,1.747-4.864,1.788   c-1.328,0.042-1.921-1.574-4.97-1.478C85.986,14.525,84,15.55,84,15.55s1.046,0.749,1.846,1.831   c1.479,2.003-0.473,8.508,8.293,8.508c8.767,0,6.61-6.676,8.046-8.84c0.175-0.265,0.354-0.514,0.529-0.745   c0.077-0.067,0.124-0.112,0.127-0.116L102.819,16.166z M99.011,16.579c0.382-0.072,0.766-0.152,1.148-0.243   c0.069,0.125,0.12,0.259,0.128,0.392c0.029-0.183,0.056-0.327,0.084-0.445c0.863-0.214,1.722-0.479,2.563-0.808   c-0.109,0.156-0.215,0.319-0.321,0.482l-0.005-0.005c-0.021,0.021-1.485,1.428-4.065,2.311   C98.621,17.355,98.817,16.853,99.011,16.579z M98.364,16.69c0.128,0.261,0.18,0.728,0.171,1.576   c-0.593,0.203-1.252,0.372-1.959,0.496c0.095-1.185,0.387-1.694,0.622-1.912C97.585,16.805,97.974,16.752,98.364,16.69z    M94.884,17.025c0.453-0.017,0.912-0.043,1.376-0.081c0.237,0.202,0.328,0.667,0.313,1.818c-0.699,0.123-1.446,0.201-2.25,0.201   C94.374,17.493,94.586,17.146,94.884,17.025z M92.302,17.023c0.398,0.015,0.807,0.024,1.224,0.025l-0.021,0.001   c0.149,0.001,0.755,0.117,0.809,1.914c-0.92,0-1.795-0.086-2.613-0.225C91.841,17.547,92.003,17.14,92.302,17.023z M87.893,16.593   c0.124,0.21,0.223,0.448,0.221,0.671c0.061-0.264,0.112-0.462,0.166-0.613c0.409,0.059,0.85,0.116,1.317,0.168   c0.15,0.36,0.253,0.841,0.184,1.453c0.123-0.53,0.216-1.028,0.359-1.396c0.413,0.04,0.844,0.075,1.29,0.103   c0.162,0.302,0.299,0.832,0.264,1.759c-3.77-0.641-6.313-2.434-6.344-2.456l-0.023,0.033c-0.075-0.093-0.147-0.185-0.224-0.277   C85.102,16.037,86.17,16.325,87.893,16.593z M99.336,20.828c-0.009,0.01-0.018,0.02-0.027,0.03   c-0.022,0.023-0.044,0.046-0.065,0.068c-0.084,0.087-0.18,0.184-0.298,0.292c-0.042,0.039-0.087,0.076-0.13,0.114   c-0.037,0.033-0.071,0.063-0.11,0.097c-0.041,0.035-0.08,0.071-0.121,0.106c-0.002-0.002-0.004-0.003-0.006-0.004   c-0.903,0.72-2.427,1.581-4.578,1.581c-3.173,0-5.124-2.175-5.568-2.728c-0.871-0.994-1.65-2.178-2.575-3.393   c1.343,0.775,4.499,2.306,8.462,2.306c3.807,0,6.521-1.587,7.762-2.492C101.254,18.172,100.443,19.655,99.336,20.828z"/>
	<path d="M89.828,21.281c0.916,0.722,2.324,1.497,4.172,1.497c1.962,0,3.397-0.774,4.273-1.444   c-0.828-0.438-2.429-0.736-4.273-0.736C92.23,20.598,90.682,20.871,89.828,21.281z"/>
</g>
</svg>